<svg width="1280" height="360" viewBox="0 0 1280 360" fill="none" xmlns="http://www.w3.org/2000/svg" font-family="-apple-system, BlinkMacSystemFont, 'Segoe UI', Roboto, Helvetica, Arial, sans-serif">
  <defs>
    <linearGradient id="grad" x1="0" y1="0" x2="1" y2="1">
      <stop offset="0%" stop-color="#6366f1"/>
      <stop offset="50%" stop-color="#8b5cf6"/>
      <stop offset="100%" stop-color="#06b6d4"/>
    </linearGradient>
    <linearGradient id="gradSoft" x1="0" y1="0" x2="1" y2="1">
      <stop offset="0%" stop-color="#eef2ff"/>
      <stop offset="100%" stop-color="#ecfeff"/>
    </linearGradient>
    <filter id="shadow" x="-20%" y="-20%" width="140%" height="140%">
      <feDropShadow dx="0" dy="6" stdDeviation="10" flood-color="#0f172a" flood-opacity="0.08"/>
    </filter>
  </defs>

  <!-- background -->
  <rect width="1280" height="360" fill="#f8fafc"/>
  <rect x="0.5" y="0.5" width="1279" height="359" rx="0" fill="none" stroke="#e2e8f0" stroke-width="1"/>

  <!-- ===== LEFT: wordmark + tagline + prompt ===== -->
  <g transform="translate(96, 96)">
    <!-- logo glyph: stacked modules -->
    <g transform="translate(0, 6)">
      <rect x="0" y="0" width="52" height="52" rx="12" fill="url(#grad)" filter="url(#shadow)"/>
      <rect x="11" y="13" width="30" height="6" rx="3" fill="#ffffff" opacity="0.95"/>
      <rect x="11" y="24" width="30" height="6" rx="3" fill="#ffffff" opacity="0.7"/>
      <rect x="11" y="35" width="20" height="6" rx="3" fill="#ffffff" opacity="0.5"/>
    </g>

    <!-- wordmark -->
    <text x="72" y="44" font-size="58" font-weight="800" fill="#0f172a" letter-spacing="-1.5">JR<tspan fill="#6366f1"> Stack</tspan></text>

    <!-- tagline -->
    <text x="2" y="104" font-size="22" font-weight="500" fill="#475569">Instalador del harness metodológico para agentes de IA</text>
    <text x="2" y="134" font-size="16" font-weight="400" fill="#94a3b8">Un binario. Un catálogo de harnesses. Tu agente listo para OPSX.</text>

    <!-- terminal prompt chip -->
    <g transform="translate(2, 162)">
      <rect x="0" y="0" width="372" height="48" rx="12" fill="#0f172a" filter="url(#shadow)"/>
      <circle cx="22" cy="24" r="5" fill="#f87171"/>
      <circle cx="40" cy="24" r="5" fill="#fbbf24"/>
      <circle cx="58" cy="24" r="5" fill="#34d399"/>
      <text x="82" y="30" font-family="'SF Mono', 'Cascadia Code', Consolas, monospace" font-size="17" fill="#e2e8f0">$ jr-stack <tspan fill="#67e8f9">install</tspan></text>
    </g>
  </g>

  <!-- ===== RIGHT: "harness of harnesses" assembly ===== -->
  <g transform="translate(820, 60)">
    <!-- outer frame (the stack) -->
    <rect x="0" y="0" width="360" height="240" rx="24" fill="url(#gradSoft)" stroke="#c7d2fe" stroke-width="1.5" stroke-dasharray="2 0"/>
    <text x="20" y="32" font-size="13" font-weight="700" fill="#6366f1" letter-spacing="1.5">JR STACK</text>

    <!-- agent node -->
    <g transform="translate(150, 14)">
      <circle cx="30" cy="30" r="26" fill="#ffffff" stroke="#6366f1" stroke-width="2.5" filter="url(#shadow)"/>
      <circle cx="22" cy="27" r="3.5" fill="#6366f1"/>
      <circle cx="38" cy="27" r="3.5" fill="#6366f1"/>
      <path d="M21 38 Q30 44 39 38" stroke="#6366f1" stroke-width="2.5" fill="none" stroke-linecap="round"/>
    </g>

    <!-- connectors -->
    <g stroke="#cbd5e1" stroke-width="2" stroke-linecap="round">
      <path d="M180 82 L70 132" fill="none"/>
      <path d="M180 82 L180 132" fill="none"/>
      <path d="M180 82 L290 132" fill="none"/>
    </g>

    <!-- harness blocks row 1 -->
    <g filter="url(#shadow)">
      <rect x="28" y="132" width="92" height="42" rx="11" fill="#ffffff" stroke="#e2e8f0"/>
      <rect x="134" y="132" width="92" height="42" rx="11" fill="#ffffff" stroke="#e2e8f0"/>
      <rect x="240" y="132" width="92" height="42" rx="11" fill="#ffffff" stroke="#e2e8f0"/>
    </g>
    <rect x="28" y="132" width="6" height="42" rx="3" fill="#6366f1"/>
    <rect x="134" y="132" width="6" height="42" rx="3" fill="#8b5cf6"/>
    <rect x="240" y="132" width="6" height="42" rx="3" fill="#06b6d4"/>
    <text x="44" y="151" font-size="12" font-weight="700" fill="#334155">skill</text>
    <text x="44" y="166" font-size="10" fill="#94a3b8">SKILL.md</text>
    <text x="150" y="151" font-size="12" font-weight="700" fill="#334155">config</text>
    <text x="150" y="166" font-size="10" fill="#94a3b8">orchestrator</text>
    <text x="256" y="151" font-size="12" font-weight="700" fill="#334155">external</text>
    <text x="256" y="166" font-size="10" fill="#94a3b8">CLI / MCP</text>

    <!-- harness blocks row 2 (chips) -->
    <g>
      <rect x="44" y="190" width="76" height="28" rx="14" fill="#eef2ff"/>
      <text x="60" y="208" font-size="11" font-weight="600" fill="#4f46e5">OpenSpec</text>
      <rect x="130" y="190" width="68" height="28" rx="14" fill="#f5f3ff"/>
      <text x="146" y="208" font-size="11" font-weight="600" fill="#7c3aed">Engram</text>
      <rect x="208" y="190" width="78" height="28" rx="14" fill="#ecfeff"/>
      <text x="222" y="208" font-size="11" font-weight="600" fill="#0891b2">Context7</text>
    </g>
  </g>
</svg>
